<?xml version="1.0" encoding="UTF-8" standalone="no"?>
<!DOCTYPE svg PUBLIC "-//W3C//DTD SVG 1.1//EN"
 "http://www.w3.org/Graphics/SVG/1.1/DTD/svg11.dtd">
<!-- Generated by graphviz version 2.40.1 (20161225.0304)
 -->
<!-- Title: saneshell Pages: 1 -->
<svg width="444pt" height="260pt"
 viewBox="0.00 0.00 444.38 260.00" xmlns="http://www.w3.org/2000/svg" xmlns:xlink="http://www.w3.org/1999/xlink">
<g id="graph0" class="graph" transform="scale(1 1) rotate(0) translate(4 256)">
<title>saneshell</title>
<polygon fill="#ffffff" stroke="transparent" points="-4,4 -4,-256 440.3752,-256 440.3752,4 -4,4"/>
<!-- core -->
<g id="node1" class="node">
<title>core</title>
<path fill="#e8f0fe" stroke="#000000" d="M169.3432,-252C169.3432,-252 97.0621,-252 97.0621,-252 91.0621,-252 85.0621,-246 85.0621,-240 85.0621,-240 85.0621,-228 85.0621,-228 85.0621,-222 91.0621,-216 97.0621,-216 97.0621,-216 169.3432,-216 169.3432,-216 175.3432,-216 181.3432,-222 181.3432,-228 181.3432,-228 181.3432,-240 181.3432,-240 181.3432,-246 175.3432,-252 169.3432,-252"/>
<text text-anchor="middle" x="133.2027" y="-230.7" font-family="monospace" font-size="11.00" fill="#000000">saneshell Go Core</text>
</g>
<!-- editor -->
<g id="node2" class="node">
<title>editor</title>
<path fill="none" stroke="#000000" d="M54.6092,-180C54.6092,-180 11.7961,-180 11.7961,-180 5.7961,-180 -.2039,-174 -.2039,-168 -.2039,-168 -.2039,-156 -.2039,-156 -.2039,-150 5.7961,-144 11.7961,-144 11.7961,-144 54.6092,-144 54.6092,-144 60.6092,-144 66.6092,-150 66.6092,-156 66.6092,-156 66.6092,-168 66.6092,-168 66.6092,-174 60.6092,-180 54.6092,-180"/>
<text text-anchor="middle" x="33.2027" y="-165.3" font-family="monospace" font-size="11.00" fill="#000000">Line Editor</text>
<text text-anchor="middle" x="33.2027" y="-152.1" font-family="monospace" font-size="11.00" fill="#000000">(vi keys)</text>
</g>
<!-- core&#45;&gt;editor -->
<g id="edge1" class="edge">
<title>core&#45;&gt;editor</title>
<path fill="none" stroke="#000000" d="M84.9601,-234C59.3883,-234 33.2027,-234 33.2027,-234 33.2027,-234 33.2027,-190.1686 33.2027,-190.1686"/>
<polygon fill="#000000" stroke="#000000" points="36.7027,-190.1686 33.2027,-180.1686 29.7027,-190.1687 36.7027,-190.1686"/>
</g>
<!-- pty -->
<g id="node3" class="node">
<title>pty</title>
<path fill="none" stroke="#000000" d="M169.6748,-180C169.6748,-180 96.7305,-180 96.7305,-180 90.7305,-180 84.7305,-174 84.7305,-168 84.7305,-168 84.7305,-156 84.7305,-156 84.7305,-150 90.7305,-144 96.7305,-144 96.7305,-144 169.6748,-144 169.6748,-144 175.6748,-144 181.6748,-150 181.6748,-156 181.6748,-156 181.6748,-168 181.6748,-168 181.6748,-174 175.6748,-180 169.6748,-180"/>
<text text-anchor="middle" x="133.2027" y="-158.7" font-family="monospace" font-size="11.00" fill="#000000">PTY / Job Control</text>
</g>
<!-- core&#45;&gt;pty -->
<g id="edge2" class="edge">
<title>core&#45;&gt;pty</title>
<path fill="none" stroke="#000000" d="M133.2027,-215.8314C133.2027,-215.8314 133.2027,-190.4133 133.2027,-190.4133"/>
<polygon fill="#000000" stroke="#000000" points="136.7027,-190.4132 133.2027,-180.4133 129.7027,-190.4133 136.7027,-190.4132"/>
</g>
<!-- ipc -->
<g id="node4" class="node">
<title>ipc</title>
<path fill="none" stroke="#000000" d="M294.6334,-180C294.6334,-180 211.7719,-180 211.7719,-180 205.7719,-180 199.7719,-174 199.7719,-168 199.7719,-168 199.7719,-156 199.7719,-156 199.7719,-150 205.7719,-144 211.7719,-144 211.7719,-144 294.6334,-144 294.6334,-144 300.6334,-144 306.6334,-150 306.6334,-156 306.6334,-156 306.6334,-168 306.6334,-168 306.6334,-174 300.6334,-180 294.6334,-180"/>
<text text-anchor="middle" x="253.2027" y="-165.3" font-family="monospace" font-size="11.00" fill="#000000">IPC Client</text>
<text text-anchor="middle" x="253.2027" y="-152.1" font-family="monospace" font-size="11.00" fill="#000000">Unix Socket JSONL</text>
</g>
<!-- core&#45;&gt;ipc -->
<g id="edge3" class="edge">
<title>core&#45;&gt;ipc</title>
<path fill="none" stroke="#000000" d="M181.6653,-234C214.9698,-234 253.2027,-234 253.2027,-234 253.2027,-234 253.2027,-190.1686 253.2027,-190.1686"/>
<polygon fill="#000000" stroke="#000000" points="256.7027,-190.1686 253.2027,-180.1686 249.7027,-190.1687 256.7027,-190.1686"/>
</g>
<!-- intel -->
<g id="node5" class="node">
<title>intel</title>
<path fill="none" stroke="#000000" d="M281.448,-108C281.448,-108 224.9573,-108 224.9573,-108 218.9573,-108 212.9573,-102 212.9573,-96 212.9573,-96 212.9573,-84 212.9573,-84 212.9573,-78 218.9573,-72 224.9573,-72 224.9573,-72 281.448,-72 281.448,-72 287.448,-72 293.448,-78 293.448,-84 293.448,-84 293.448,-96 293.448,-96 293.448,-102 287.448,-108 281.448,-108"/>
<text text-anchor="middle" x="253.2027" y="-93.3" font-family="monospace" font-size="11.00" fill="#000000">saneshell&#45;intel</text>
<text text-anchor="middle" x="253.2027" y="-80.1" font-family="monospace" font-size="11.00" fill="#000000">Java/GraalVM</text>
</g>
<!-- ipc&#45;&gt;intel -->
<g id="edge4" class="edge">
<title>ipc&#45;&gt;intel</title>
<path fill="none" stroke="#000000" d="M253.2027,-143.8314C253.2027,-143.8314 253.2027,-118.4133 253.2027,-118.4133"/>
<polygon fill="#000000" stroke="#000000" points="256.7027,-118.4132 253.2027,-108.4133 249.7027,-118.4133 256.7027,-118.4132"/>
</g>
<!-- completions -->
<g id="node6" class="node">
<title>completions</title>
<path fill="none" stroke="#000000" d="M150.4273,-36C150.4273,-36 101.978,-36 101.978,-36 95.978,-36 89.978,-30 89.978,-24 89.978,-24 89.978,-12 89.978,-12 89.978,-6 95.978,0 101.978,0 101.978,0 150.4273,0 150.4273,0 156.4273,0 162.4273,-6 162.4273,-12 162.4273,-12 162.4273,-24 162.4273,-24 162.4273,-30 156.4273,-36 150.4273,-36"/>
<text text-anchor="middle" x="126.2027" y="-14.7" font-family="monospace" font-size="11.00" fill="#000000">Completions</text>
</g>
<!-- intel&#45;&gt;completions -->
<g id="edge5" class="edge">
<title>intel&#45;&gt;completions</title>
<path fill="none" stroke="#000000" d="M212.6699,-90C175.5025,-90 126.2027,-90 126.2027,-90 126.2027,-90 126.2027,-46.1686 126.2027,-46.1686"/>
<polygon fill="#000000" stroke="#000000" points="129.7027,-46.1686 126.2027,-36.1686 122.7027,-46.1687 129.7027,-46.1686"/>
</g>
<!-- previews -->
<g id="node7" class="node">
<title>previews</title>
<path fill="none" stroke="#000000" d="M224.5219,-36C224.5219,-36 191.8834,-36 191.8834,-36 185.8834,-36 179.8834,-30 179.8834,-24 179.8834,-24 179.8834,-12 179.8834,-12 179.8834,-6 185.8834,0 191.8834,0 191.8834,0 224.5219,0 224.5219,0 230.5219,0 236.5219,-6 236.5219,-12 236.5219,-12 236.5219,-24 236.5219,-24 236.5219,-30 230.5219,-36 224.5219,-36"/>
<text text-anchor="middle" x="208.2027" y="-14.7" font-family="monospace" font-size="11.00" fill="#000000">Previews</text>
</g>
<!-- intel&#45;&gt;previews -->
<g id="edge6" class="edge">
<title>intel&#45;&gt;previews</title>
<path fill="none" stroke="#000000" d="M224.596,-71.8314C224.596,-71.8314 224.596,-46.4133 224.596,-46.4133"/>
<polygon fill="#000000" stroke="#000000" points="228.0961,-46.4132 224.596,-36.4133 221.0961,-46.4133 228.0961,-46.4132"/>
</g>
<!-- learning -->
<g id="node8" class="node">
<title>learning</title>
<path fill="none" stroke="#000000" d="M331.8177,-36C331.8177,-36 266.5876,-36 266.5876,-36 260.5876,-36 254.5876,-30 254.5876,-24 254.5876,-24 254.5876,-12 254.5876,-12 254.5876,-6 260.5876,0 266.5876,0 266.5876,0 331.8177,0 331.8177,0 337.8177,0 343.8177,-6 343.8177,-12 343.8177,-12 343.8177,-24 343.8177,-24 343.8177,-30 337.8177,-36 331.8177,-36"/>
<text text-anchor="middle" x="299.2027" y="-14.7" font-family="monospace" font-size="11.00" fill="#000000">Learning Engine</text>
</g>
<!-- intel&#45;&gt;learning -->
<g id="edge7" class="edge">
<title>intel&#45;&gt;learning</title>
<path fill="none" stroke="#000000" d="M273.9853,-71.8314C273.9853,-71.8314 273.9853,-46.4133 273.9853,-46.4133"/>
<polygon fill="#000000" stroke="#000000" points="277.4854,-46.4132 273.9853,-36.4133 270.4854,-46.4133 277.4854,-46.4132"/>
</g>
<!-- ollama -->
<g id="node9" class="node">
<title>ollama</title>
<path fill="none" stroke="#000000" d="M424.5486,-36C424.5486,-36 373.8567,-36 373.8567,-36 367.8567,-36 361.8567,-30 361.8567,-24 361.8567,-24 361.8567,-12 361.8567,-12 361.8567,-6 367.8567,0 373.8567,0 373.8567,0 424.5486,0 424.5486,0 430.5486,0 436.5486,-6 436.5486,-12 436.5486,-12 436.5486,-24 436.5486,-24 436.5486,-30 430.5486,-36 424.5486,-36"/>
<text text-anchor="middle" x="399.2027" y="-14.7" font-family="monospace" font-size="11.00" fill="#000000">Ollama LLM</text>
</g>
<!-- intel&#45;&gt;ollama -->
<g id="edge8" class="edge">
<title>intel&#45;&gt;ollama</title>
<path fill="none" stroke="#000000" d="M293.4843,-90C336.6994,-90 399.2027,-90 399.2027,-90 399.2027,-90 399.2027,-46.1686 399.2027,-46.1686"/>
<polygon fill="#000000" stroke="#000000" points="402.7027,-46.1686 399.2027,-36.1686 395.7027,-46.1687 402.7027,-46.1686"/>
</g>
</g>
</svg>
